<svg xmlns="http://www.w3.org/2000/svg" xmlns:xlink="http://www.w3.org/1999/xlink" width="400" zoomAndPan="magnify" viewBox="0 0 300 74.999997" height="100" preserveAspectRatio="xMidYMid meet" version="1.0"><defs><g/></defs><g fill="#000000" fill-opacity="1"><g transform="translate(21.080143, 50.678529)"><g><path d="M 1.921875 -29.328125 C 2.054688 -28.878906 2.15625 -28.597656 2.21875 -28.484375 C 2.289062 -28.378906 2.453125 -28.328125 2.703125 -28.328125 L 28.953125 -28.328125 C 29.421875 -28.328125 29.695312 -28.660156 29.78125 -29.328125 L 30.15625 -29.328125 L 30.15625 -23.15625 L 29.78125 -23.15625 C 29.695312 -23.488281 29.570312 -23.738281 29.40625 -23.90625 C 29.238281 -24.070312 29.0625 -24.15625 28.875 -24.15625 L 18.203125 -24.15625 L 18.203125 -1.125 C 18.203125 -0.925781 18.285156 -0.78125 18.453125 -0.6875 C 18.617188 -0.59375 18.867188 -0.488281 19.203125 -0.375 L 19.203125 0 L 12.5 0 L 12.5 -0.375 C 12.882812 -0.507812 13.144531 -0.625 13.28125 -0.71875 C 13.425781 -0.820312 13.5 -0.957031 13.5 -1.125 L 13.5 -24.15625 L 2.703125 -24.15625 C 2.453125 -24.15625 2.285156 -24.085938 2.203125 -23.953125 C 2.117188 -23.816406 2.023438 -23.550781 1.921875 -23.15625 L 1.546875 -23.15625 L 1.546875 -29.328125 Z M 1.921875 -29.328125 "/></g></g></g><g fill="#000000" fill-opacity="1"><g transform="translate(52.731428, 50.678529)"><g><path d="M 9.453125 -23.953125 C 9.097656 -23.898438 8.84375 -23.816406 8.6875 -23.703125 C 8.53125 -23.585938 8.453125 -23.421875 8.453125 -23.203125 L 8.453125 -14.375 L 23.203125 -14.375 L 23.203125 -23.15625 C 23.203125 -23.40625 23.117188 -23.578125 22.953125 -23.671875 C 22.785156 -23.773438 22.535156 -23.867188 22.203125 -23.953125 L 22.203125 -24.328125 L 28.375 -24.328125 L 28.375 -23.953125 C 28.007812 -23.898438 27.75 -23.8125 27.59375 -23.6875 C 27.445312 -23.5625 27.375 -23.382812 27.375 -23.15625 L 27.375 -1.078125 C 27.375 -0.859375 27.4375 -0.707031 27.5625 -0.625 C 27.6875 -0.539062 27.957031 -0.457031 28.375 -0.375 L 28.375 0 L 22.203125 0 L 22.203125 -0.375 C 22.535156 -0.425781 22.785156 -0.492188 22.953125 -0.578125 C 23.117188 -0.660156 23.203125 -0.816406 23.203125 -1.046875 L 23.203125 -10.90625 L 8.453125 -10.90625 L 8.453125 -1.078125 C 8.453125 -0.890625 8.535156 -0.742188 8.703125 -0.640625 C 8.867188 -0.546875 9.132812 -0.457031 9.5 -0.375 L 9.5 0 L 3.296875 0 L 3.296875 -0.375 C 3.679688 -0.425781 3.941406 -0.5 4.078125 -0.59375 C 4.222656 -0.695312 4.296875 -0.875 4.296875 -1.125 L 4.296875 -23.328125 C 4.296875 -23.492188 4.234375 -23.609375 4.109375 -23.671875 C 3.984375 -23.742188 3.710938 -23.835938 3.296875 -23.953125 L 3.296875 -24.328125 L 9.453125 -24.328125 Z M 9.453125 -23.953125 "/></g></g></g><g fill="#000000" fill-opacity="1"><g transform="translate(84.382713, 50.678529)"><g><path d="M 23.625 -19.875 C 23.539062 -20.207031 23.441406 -20.457031 23.328125 -20.625 C 23.210938 -20.789062 23.070312 -20.875 22.90625 -20.875 L 8.203125 -20.875 L 8.203125 -14.203125 L 17.78125 -14.203125 C 17.945312 -14.203125 18.066406 -14.265625 18.140625 -14.390625 C 18.210938 -14.515625 18.273438 -14.785156 18.328125 -15.203125 L 18.703125 -15.203125 L 18.703125 -9.75 L 18.328125 -9.75 C 18.242188 -10.164062 18.148438 -10.4375 18.046875 -10.5625 C 17.953125 -10.6875 17.753906 -10.75 17.453125 -10.75 L 8.203125 -10.75 L 8.203125 -3.453125 L 23.375 -3.453125 C 23.675781 -3.453125 23.882812 -3.773438 24 -4.421875 L 24.375 -4.421875 L 24.375 1.046875 L 24 1.046875 C 23.882812 0.347656 23.660156 0 23.328125 0 L 3.078125 0 L 3.078125 -0.375 C 3.410156 -0.425781 3.660156 -0.492188 3.828125 -0.578125 C 3.992188 -0.660156 4.078125 -0.816406 4.078125 -1.046875 L 4.078125 -23.203125 C 4.078125 -23.421875 4.007812 -23.578125 3.875 -23.671875 C 3.738281 -23.773438 3.472656 -23.867188 3.078125 -23.953125 L 3.078125 -24.328125 L 23.125 -24.328125 C 23.34375 -24.328125 23.507812 -24.644531 23.625 -25.28125 L 24 -25.28125 L 24 -19.875 Z M 23.625 -19.875 "/></g></g></g><g fill="#000000" fill-opacity="1"><g transform="translate(109.537161, 50.678529)"><g/></g></g><g fill="#000000" fill-opacity="1"><g transform="translate(121.031579, 50.678529)"><g><path d="M 33.234375 -20.03125 C 33.234375 -17.863281 32.566406 -16.140625 31.234375 -14.859375 C 29.910156 -13.585938 28 -12.757812 25.5 -12.375 L 33.40625 -0.953125 C 33.625 -0.648438 34.082031 -0.457031 34.78125 -0.375 L 34.78125 0 L 26.78125 0 L 26.78125 -0.375 C 27.28125 -0.539062 27.613281 -0.722656 27.78125 -0.921875 L 20.03125 -12.078125 L 9.453125 -12.078125 L 9.453125 -1.125 C 9.453125 -0.957031 9.539062 -0.800781 9.71875 -0.65625 C 9.90625 -0.519531 10.148438 -0.425781 10.453125 -0.375 L 10.453125 0 L 3.75 0 L 3.75 -0.375 C 4.414062 -0.507812 4.75 -0.757812 4.75 -1.125 L 4.75 -27.15625 C 4.75 -27.488281 4.414062 -27.753906 3.75 -27.953125 L 3.75 -28.328125 L 23.40625 -28.328125 C 25.15625 -28.328125 26.773438 -28.023438 28.265625 -27.421875 C 29.753906 -26.828125 30.953125 -25.90625 31.859375 -24.65625 C 32.773438 -23.40625 33.234375 -21.863281 33.234375 -20.03125 Z M 28.40625 -20.078125 C 28.40625 -21.359375 27.945312 -22.359375 27.03125 -23.078125 C 26.113281 -23.796875 24.363281 -24.15625 21.78125 -24.15625 L 9.453125 -24.15625 L 9.453125 -16.25 L 23.203125 -16.25 C 24.648438 -16.25 25.878906 -16.546875 26.890625 -17.140625 C 27.898438 -17.734375 28.40625 -18.710938 28.40625 -20.078125 Z M 28.40625 -20.078125 "/></g></g></g><g fill="#000000" fill-opacity="1"><g transform="translate(157.05574, 50.678529)"><g><path d="M 17.28125 -23.953125 C 16.945312 -23.921875 16.71875 -23.867188 16.59375 -23.796875 C 16.46875 -23.734375 16.40625 -23.632812 16.40625 -23.5 C 16.40625 -23.351562 16.460938 -23.144531 16.578125 -22.875 L 25.28125 -1.453125 C 25.507812 -0.953125 25.675781 -0.65625 25.78125 -0.5625 C 25.894531 -0.46875 26.175781 -0.40625 26.625 -0.375 L 26.625 0 L 20.328125 0 L 20.328125 -0.375 C 20.710938 -0.375 21.046875 -0.457031 21.328125 -0.625 L 18.828125 -6.671875 L 7.875 -6.671875 L 5.421875 -0.75 C 5.523438 -0.613281 5.675781 -0.515625 5.875 -0.453125 C 6.070312 -0.398438 6.28125 -0.375 6.5 -0.375 L 6.5 0 L 0.671875 0 L 0.671875 -0.375 C 1.054688 -0.425781 1.316406 -0.507812 1.453125 -0.625 C 1.597656 -0.738281 1.722656 -0.929688 1.828125 -1.203125 L 10.578125 -22.625 C 10.710938 -22.976562 10.78125 -23.226562 10.78125 -23.375 C 10.78125 -23.59375 10.492188 -23.785156 9.921875 -23.953125 L 9.921875 -24.328125 L 17.28125 -24.328125 Z M 17.40625 -10.125 L 13.375 -20.328125 L 9.203125 -10.125 Z M 17.40625 -10.125 "/></g></g></g><g fill="#000000" fill-opacity="1"><g transform="translate(184.375801, 50.678529)"><g><path d="M 23.953125 -17.328125 C 23.953125 -15.941406 23.625 -14.734375 22.96875 -13.703125 C 22.320312 -12.671875 21.441406 -11.882812 20.328125 -11.34375 C 19.210938 -10.800781 18.003906 -10.53125 16.703125 -10.53125 L 8.171875 -10.53125 L 8.171875 -1.078125 C 8.171875 -0.859375 8.253906 -0.707031 8.421875 -0.625 C 8.585938 -0.539062 8.835938 -0.457031 9.171875 -0.375 L 9.171875 0 L 3 0 L 3 -0.375 C 3.332031 -0.425781 3.582031 -0.492188 3.75 -0.578125 C 3.914062 -0.660156 4 -0.816406 4 -1.046875 L 4 -23.25 C 4 -23.46875 3.90625 -23.625 3.71875 -23.71875 C 3.539062 -23.820312 3.300781 -23.898438 3 -23.953125 L 3 -24.328125 L 16.453125 -24.328125 C 17.816406 -24.328125 19.066406 -24.035156 20.203125 -23.453125 C 21.335938 -22.867188 22.242188 -22.046875 22.921875 -20.984375 C 23.609375 -19.929688 23.953125 -18.710938 23.953125 -17.328125 Z M 19.625 -17.453125 C 19.625 -18.535156 19.257812 -19.375 18.53125 -19.96875 C 17.8125 -20.570312 16.9375 -20.875 15.90625 -20.875 L 8.171875 -20.875 L 8.171875 -14 L 16.03125 -14 C 17.007812 -14 17.851562 -14.296875 18.5625 -14.890625 C 19.269531 -15.484375 19.625 -16.335938 19.625 -17.453125 Z M 19.625 -17.453125 "/></g></g></g><g fill="#000000" fill-opacity="1"><g transform="translate(209.530249, 50.678529)"><g><path d="M 10.453125 -23.90625 C 10.148438 -23.851562 9.90625 -23.773438 9.71875 -23.671875 C 9.539062 -23.578125 9.453125 -23.421875 9.453125 -23.203125 L 9.453125 -1.125 C 9.453125 -0.90625 9.519531 -0.742188 9.65625 -0.640625 C 9.800781 -0.546875 10.066406 -0.457031 10.453125 -0.375 L 10.453125 0 L 4.296875 0 L 4.296875 -0.375 C 4.347656 -0.375 4.46875 -0.394531 4.65625 -0.4375 C 4.851562 -0.476562 5.007812 -0.546875 5.125 -0.640625 C 5.238281 -0.742188 5.296875 -0.878906 5.296875 -1.046875 L 5.296875 -23.203125 C 5.296875 -23.421875 5.21875 -23.578125 5.0625 -23.671875 C 4.90625 -23.773438 4.648438 -23.867188 4.296875 -23.953125 L 4.296875 -24.328125 L 10.453125 -24.328125 Z M 10.453125 -23.90625 "/></g></g></g><g fill="#000000" fill-opacity="1"><g transform="translate(224.27307, 50.678529)"><g><path d="M 28 -12.203125 C 28 -9.535156 27.507812 -7.285156 26.53125 -5.453125 C 25.5625 -3.617188 24.253906 -2.25 22.609375 -1.34375 C 20.972656 -0.445312 19.128906 0 17.078125 0 L 3.046875 0 L 3.046875 -0.375 C 3.097656 -0.375 3.21875 -0.394531 3.40625 -0.4375 C 3.601562 -0.476562 3.757812 -0.546875 3.875 -0.640625 C 3.988281 -0.742188 4.046875 -0.878906 4.046875 -1.046875 L 4.046875 -23.25 C 4.046875 -23.46875 3.960938 -23.617188 3.796875 -23.703125 C 3.628906 -23.785156 3.378906 -23.867188 3.046875 -23.953125 L 3.046875 -24.328125 L 17.078125 -24.328125 C 19.109375 -24.328125 20.941406 -23.890625 22.578125 -23.015625 C 24.210938 -22.140625 25.523438 -20.789062 26.515625 -18.96875 C 27.503906 -17.15625 28 -14.898438 28 -12.203125 Z M 16.453125 -3.453125 C 18.953125 -3.453125 20.769531 -4.1875 21.90625 -5.65625 C 23.050781 -7.132812 23.625 -9.398438 23.625 -12.453125 C 23.625 -15.671875 22.957031 -17.878906 21.625 -19.078125 C 20.289062 -20.273438 18.457031 -20.875 16.125 -20.875 L 8.203125 -20.875 L 8.203125 -3.453125 Z M 16.453125 -3.453125 "/></g></g></g><g fill="#000000" fill-opacity="1"><g transform="translate(253.758753, 50.678529)"><g><path d="M 12.078125 -24.828125 C 13.796875 -24.828125 15.40625 -24.640625 16.90625 -24.265625 C 18.40625 -23.890625 19.863281 -23.4375 21.28125 -22.90625 C 21.976562 -22.65625 22.367188 -22.53125 22.453125 -22.53125 C 22.703125 -22.53125 22.925781 -22.738281 23.125 -23.15625 L 23.453125 -23.03125 L 20.875 -17.578125 L 20.53125 -17.703125 C 20.644531 -18.035156 20.703125 -18.300781 20.703125 -18.5 C 20.703125 -18.800781 20.1875 -19.171875 19.15625 -19.609375 C 18.132812 -20.054688 16.90625 -20.441406 15.46875 -20.765625 C 14.039062 -21.085938 12.742188 -21.25 11.578125 -21.25 C 9.890625 -21.25 8.46875 -20.957031 7.3125 -20.375 C 6.15625 -19.789062 5.578125 -18.96875 5.578125 -17.90625 C 5.578125 -17.1875 5.828125 -16.628906 6.328125 -16.234375 C 6.828125 -15.847656 7.59375 -15.550781 8.625 -15.34375 C 9.65625 -15.132812 11.113281 -14.960938 13 -14.828125 C 15.132812 -14.660156 16.976562 -14.367188 18.53125 -13.953125 C 20.09375 -13.535156 21.375 -12.804688 22.375 -11.765625 C 23.375 -10.722656 23.875 -9.285156 23.875 -7.453125 C 23.875 -5.898438 23.421875 -4.519531 22.515625 -3.3125 C 21.609375 -2.101562 20.347656 -1.164062 18.734375 -0.5 C 17.128906 0.164062 15.3125 0.5 13.28125 0.5 C 11.726562 0.5 10.351562 0.335938 9.15625 0.015625 C 7.96875 -0.296875 6.734375 -0.71875 5.453125 -1.25 L 3.828125 -1.953125 C 3.722656 -2.015625 3.484375 -2.128906 3.109375 -2.296875 C 2.734375 -2.460938 2.460938 -2.546875 2.296875 -2.546875 C 1.960938 -2.546875 1.585938 -2.296875 1.171875 -1.796875 L 0.921875 -1.953125 L 3.671875 -7.046875 L 4 -6.921875 C 3.945312 -6.472656 3.921875 -6.222656 3.921875 -6.171875 C 3.921875 -5.941406 4.453125 -5.570312 5.515625 -5.0625 C 6.585938 -4.550781 7.863281 -4.09375 9.34375 -3.6875 C 10.832031 -3.28125 12.242188 -3.078125 13.578125 -3.078125 C 15.410156 -3.078125 16.890625 -3.453125 18.015625 -4.203125 C 19.140625 -4.953125 19.703125 -5.925781 19.703125 -7.125 C 19.703125 -8.09375 19.140625 -8.851562 18.015625 -9.40625 C 16.890625 -9.96875 14.96875 -10.375 12.25 -10.625 C 9.863281 -10.875 7.925781 -11.191406 6.4375 -11.578125 C 4.945312 -11.960938 3.738281 -12.609375 2.8125 -13.515625 C 1.882812 -14.421875 1.421875 -15.691406 1.421875 -17.328125 C 1.421875 -18.796875 1.863281 -20.097656 2.75 -21.234375 C 3.632812 -22.378906 4.882812 -23.265625 6.5 -23.890625 C 8.113281 -24.515625 9.972656 -24.828125 12.078125 -24.828125 Z M 12.078125 -24.828125 "/></g></g></g></svg>